# xmcd
#
# Track frame offsets: 
#        150
#        10801
#        24616
#        36479
#        51173
#        62922
#        73546
#        85302
#        97168
#        113560
#        126653
#        137061
#
# Disc length: 1969 seconds
#
# Revision: 0
# Processed by: cddbd v1.5.2PL0 Copyright (c) Steve Scherf et al.
# Submitted via: ExactAudioCopy v0.99pb4
#
DISCID=af07af0c
DTITLE=Klapa Luka Ploce - Jezik ditinjstva
DYEAR=2008
DGENRE=Country
TTITLE0=Jezik ditinjstva
TTITLE1=Zemljo moja, kruhu blagoslovljen
TTITLE2=Zizula
TTITLE3=Da mi je priproc
TTITLE4=Jere moj
TTITLE5=Dvoje se milovalo drago
TTITLE6=Blago onom
TTITLE7=Na Omiskoj stini
TTITLE8=Parce mihi domene
TTITLE9=Treseta
TTITLE10=Lindjo
TTITLE11=Lindjo mix
EXTD=
EXTT0=
EXTT1=
EXTT2=
EXTT3=
EXTT4=
EXTT5=
EXTT6=
EXTT7=
EXTT8=
EXTT9=
EXTT10=
EXTT11=
PLAYORDER=
